<svg fill="#000000" xmlns="http://www.w3.org/2000/svg"  viewBox="0 0 50 50" width="150px" height="150px"><path fill="none" stroke="#000000" stroke-linecap="round" stroke-miterlimit="10" stroke-width="2" d="M8,43L8,7c0-2.209,1.791-4,4-4h28c2.209,0,4,1.791,4,4l0,36c0,2.209-1.791,4-4,4H12C9.791,47,8,45.209,8,43z"/><path d="M30.496,40.946V23.472c0,0,1.136-4.181-14,1.711c-0.028,0.075-0.028-16.158-0.028-16.158l4.946-0.03v10.4c0,0,13.848-5.454,13.848,4.136v17.415L30.496,40.946L30.496,40.946L30.496,40.946z"/><path d="M33.314 15.289h-5.246c1.888-2.309 3.598-6.264 3.598-6.264h5.424C37.09 9.025 36.161 11.602 33.314 15.289L33.314 15.289 33.314 15.289zM16.558 40.916L16.558 30.965 21.534 35.941 16.558 40.916z"/></svg>