<svg fill="#000000" xmlns="http://www.w3.org/2000/svg"  viewBox="0 0 50 50" width="150px" height="150px"><path fill="none" stroke="#000000" stroke-linecap="round" stroke-miterlimit="10" stroke-width="2" d="M25 15L22 29M30.5 26L33.5 22 30.5 18M16.5 18L13.5 22 16.5 26"/><path fill="none" stroke="#000000" stroke-miterlimit="10" stroke-width="2" d="M32,49v-4.3l3.1,0.2c4.3,0.4,7.9-3,7.9-7.3v-5.4l4-2c0.9-0.5,1.2-1.6,0.7-2.5L43,19.6C41.9,10.3,37,2,23,2S3,11.5,3,22c0,4.2,1.3,8.1,3.5,11.3s3.5,7,3.5,10.9V49"/></svg>