<svg fill="#000000" xmlns="http://www.w3.org/2000/svg"  viewBox="0 0 50 50" width="150px" height="150px"><path d="M20 7c1.1 0 2 .9 2 2 0 1.1-.9 2-2 2-1.1 0-2-.9-2-2C18 7.9 18.9 7 20 7zM30 39c1.1 0 2 .9 2 2 0 1.1-.9 2-2 2-1.1 0-2-.9-2-2C28 39.9 28.9 39 30 39z"/><path fill="none" stroke="#000000" stroke-miterlimit="10" stroke-width="2" d="M25,3c-7.8,0-10,3.7-10,6.1V13h10v3H9.1C6,16,3,18.6,3,25s3,9,6.1,9H15v-5c0-2.2,1.8-4,4-4l12,0c2.2,0,4-1.8,4-4V9.1C35,6.6,32.8,3,25,3z"/><path fill="none" stroke="#000000" stroke-miterlimit="10" stroke-width="2" d="M25,47c7.8,0,10-3.7,10-6.1V37H25v-3h15.9c3.1,0,6.1-2.6,6.1-9s-3-9-6.1-9H35v5c0,2.2-1.8,4-4,4l-12,0c-2.2,0-4,1.8-4,4v11.9C15,43.3,17.2,47,25,47z"/></svg>