<svg fill="#000000" xmlns="http://www.w3.org/2000/svg"  viewBox="0 0 64 64" width="150px" height="150px"><circle cx="32" cy="32" r="6" fill="none" stroke="#000000" stroke-miterlimit="10" stroke-width="2"/><ellipse cx="32" cy="32" fill="none" stroke="#000000" stroke-miterlimit="10" stroke-width="2" rx="29" ry="12"/><ellipse cx="32" cy="32" fill="none" stroke="#000000" stroke-miterlimit="10" stroke-width="2" rx="29" ry="12" transform="rotate(-60 32 32.001)"/><ellipse cx="32" cy="32" fill="none" stroke="#000000" stroke-miterlimit="10" stroke-width="2" rx="12" ry="29" transform="rotate(-30 31.998 32.001)"/><path d="M10.463,45.972c-0.044,0-0.088-0.003-0.133-0.009l-1.982-0.264c-0.548-0.073-0.933-0.575-0.859-1.123 c0.072-0.548,0.572-0.933,1.123-0.859l1.982,0.264c0.548,0.073,0.933,0.575,0.859,1.123 C11.387,45.606,10.957,45.972,10.463,45.972z"/><path d="M8.194,50.885c-0.536,0-0.98-0.426-0.998-0.967c-0.019-0.552,0.413-1.014,0.966-1.032l1.998-0.067 c0.551-0.037,1.015,0.413,1.033,0.966c0.019,0.552-0.413,1.014-0.966,1.032l-1.999,0.067C8.218,50.885,8.206,50.885,8.194,50.885z"/><path d="M9.009,56.093c-0.429,0-0.825-0.277-0.956-0.708c-0.161-0.528,0.136-1.087,0.664-1.248l1.913-0.584 c0.53-0.166,1.088,0.136,1.248,0.664c0.162,0.528-0.136,1.087-0.664,1.248l-1.913,0.584C9.203,56.079,9.105,56.093,9.009,56.093z"/><path d="M11.552,60.852c-0.281,0-0.561-0.118-0.759-0.349c-0.359-0.419-0.312-1.051,0.107-1.41l1.518-1.303 c0.418-0.358,1.049-0.312,1.41,0.107c0.359,0.419,0.312,1.051-0.107,1.41l-1.518,1.303C12.015,60.772,11.783,60.852,11.552,60.852 z"/><path d="M55.771,17.718c-0.02,0-0.039-0.001-0.059-0.002l-1.996-0.115c-0.552-0.031-0.973-0.504-0.94-1.056 c0.031-0.551,0.507-0.971,1.056-0.94l1.996,0.115c0.552,0.031,0.973,0.504,0.94,1.056C56.737,17.307,56.296,17.718,55.771,17.718z"/><path d="M53.591,12.797c-0.487,0-0.913-0.355-0.988-0.852c-0.082-0.546,0.295-1.056,0.841-1.138l1.978-0.297 c0.548-0.072,1.056,0.296,1.138,0.841c0.082,0.546-0.295,1.056-0.841,1.138l-1.978,0.297C53.69,12.793,53.64,12.797,53.591,12.797 z"/><path d="M52.215,8.336c-0.36,0-0.708-0.194-0.887-0.536c-0.257-0.488-0.067-1.093,0.422-1.35l1.771-0.929 c0.488-0.256,1.093-0.068,1.35,0.422c0.257,0.488,0.067,1.093-0.422,1.35l-1.771,0.929C52.53,8.299,52.371,8.336,52.215,8.336z"/><path d="M49.266,4.919c-0.2,0-0.402-0.06-0.578-0.185c-0.45-0.32-0.556-0.944-0.236-1.395l1.158-1.631 c0.32-0.45,0.943-0.557,1.395-0.236c0.45,0.32,0.556,0.944,0.236,1.395l-1.158,1.631C49.887,4.772,49.579,4.919,49.266,4.919z"/></svg>